# Blender 5.1.2
# www.blender.org
o PipeKit_Connector_2WayCorner
v 0.005304 -0.015111 -0.015111
v 0.009800 -0.012608 -0.012608
v 0.012804 -0.008861 -0.008861
v 0.013859 -0.004441 -0.004441
v 0.012804 -0.000022 -0.000022
v 0.005304 0.006229 0.006229
v 0.009800 0.003725 0.003725
v 0.005304 -0.013092 -0.020014
v 0.009800 -0.010151 -0.018574
v 0.012804 -0.005748 -0.016420
v 0.013859 -0.000555 -0.013879
v 0.012804 0.004638 -0.011337
v 0.005304 -0.007743 0.012503
v 0.009800 -0.009183 0.009040
v 0.005304 0.009808 0.000228
v 0.009800 0.009040 -0.009183
v 0.005304 0.012273 -0.007743
v 0.012804 -0.011337 0.004638
v 0.013859 -0.013879 -0.000555
v 0.012804 -0.016420 -0.005748
v 0.009800 -0.018574 -0.010151
v 0.005304 -0.020014 -0.013092
v 0.009800 0.007032 -0.001819
v 0.012804 0.002877 -0.004881
v 0.013859 -0.002024 -0.008494
v 0.012804 -0.006925 -0.012107
v 0.009800 -0.011079 -0.015170
v 0.005304 -0.013855 -0.017217
v 0.005304 -0.017392 -0.013469
v 0.009800 -0.015383 -0.010609
v 0.012804 -0.012377 -0.006329
v 0.013859 -0.008831 -0.001281
v 0.012804 -0.005285 0.003768
v 0.009800 -0.002279 0.008048
v 0.005304 -0.000271 0.010908
v 0.002937 0.010295 0.000587
v 0.002937 0.006668 0.006668
v 0.002937 0.000082 0.011410
v 0.002937 0.012813 -0.007491
v 0.002937 -0.007491 0.013070
v 0.002937 0.015865 -0.026615
v 0.002937 0.009024 0.008873
v 0.002937 0.001431 0.014325
v 0.002937 -0.006986 0.016178
v 0.002937 0.013181 0.001980
v 0.002937 -0.026623 0.016178
v 0.002937 0.015865 -0.006822
v 0.004479 -0.010880 -0.026615
v 0.008250 -0.008411 -0.026615
v 0.010775 -0.004620 -0.026615
v 0.011660 -0.000250 -0.026615
v 0.010775 0.004163 -0.026615
v 0.008269 0.007864 -0.026615
v 0.004467 0.010253 -0.026615
v 0.002694 0.010657 -0.026615
v 0.002682 -0.026623 0.010915
v 0.004478 -0.026623 0.010484
v 0.008275 -0.026623 0.008201
v 0.010773 -0.026623 0.004462
v 0.011661 -0.026623 0.000000
v 0.010773 -0.026623 -0.004462
v 0.008245 -0.026623 -0.008245
v 0.004466 -0.026623 -0.010770
v -0.005304 -0.015111 -0.015111
v -0.009800 -0.012608 -0.012608
v -0.012804 -0.008861 -0.008861
v -0.013859 -0.004441 -0.004441
v -0.012804 -0.000022 -0.000022
v -0.005304 0.006229 0.006229
v -0.009800 0.003725 0.003725
v -0.005304 -0.013092 -0.020014
v -0.009800 -0.010151 -0.018574
v -0.012804 -0.005748 -0.016420
v -0.013859 -0.000555 -0.013879
v -0.012804 0.004638 -0.011337
v -0.005304 -0.007743 0.012503
v -0.009800 -0.009183 0.009040
v -0.005304 0.009808 0.000228
v -0.009800 0.009040 -0.009183
v -0.005304 0.012273 -0.007743
v -0.012804 -0.011337 0.004638
v -0.013859 -0.013879 -0.000555
v -0.012804 -0.016420 -0.005748
v -0.009800 -0.018574 -0.010151
v -0.005304 -0.020014 -0.013092
v -0.009800 0.007032 -0.001819
v -0.012804 0.002877 -0.004881
v -0.013859 -0.002024 -0.008494
v -0.012804 -0.006925 -0.012107
v -0.009800 -0.011079 -0.015170
v -0.005304 -0.013855 -0.017217
v -0.005304 -0.017392 -0.013469
v -0.009800 -0.015383 -0.010609
v -0.012804 -0.012377 -0.006329
v -0.013859 -0.008831 -0.001281
v -0.012804 -0.005285 0.003768
v -0.009800 -0.002279 0.008048
v -0.005304 -0.000271 0.010908
v -0.002937 0.010295 0.000587
v -0.002937 0.006668 0.006668
v -0.002937 0.000082 0.011410
v -0.002937 0.012813 -0.007491
v -0.002937 -0.007491 0.013070
v -0.002937 0.015865 -0.026615
v -0.002937 0.009024 0.008873
v -0.002937 0.001431 0.014325
v -0.002937 -0.006986 0.016178
v -0.002937 0.013181 0.001980
v -0.002937 -0.026623 0.016178
v -0.002937 0.015865 -0.006822
v -0.004479 -0.010880 -0.026615
v -0.008250 -0.008411 -0.026615
v -0.010775 -0.004620 -0.026615
v -0.011660 -0.000250 -0.026615
v -0.010775 0.004163 -0.026615
v -0.008269 0.007864 -0.026615
v -0.004467 0.010253 -0.026615
v -0.002694 0.010657 -0.026615
v -0.002682 -0.026623 0.010915
v -0.004478 -0.026623 0.010484
v -0.008275 -0.026623 0.008201
v -0.010773 -0.026623 0.004462
v -0.011661 -0.026623 0.000000
v -0.010773 -0.026623 -0.004462
v -0.008245 -0.026623 -0.008245
v -0.004466 -0.026623 -0.010770
v 0.000000 -0.015923 -0.015923
v -0.000000 -0.011739 -0.026615
v -0.000000 -0.014765 -0.017887
v 0.000000 -0.026623 -0.011639
v -0.000000 -0.014074 -0.020494
v 0.000000 -0.018046 -0.014401
v 0.000000 -0.020494 -0.014074
v 0.005304 -0.012917 -0.026615
v 0.009800 -0.009973 -0.026615
v 0.012804 -0.005463 -0.026615
v 0.013859 -0.000252 -0.026615
v 0.012804 0.005013 -0.026615
v 0.009800 0.009449 -0.026615
v 0.005304 0.012273 -0.026615
v 0.002937 -0.026623 0.013070
v 0.005304 -0.026623 0.012503
v 0.009800 -0.026623 0.009800
v 0.012804 -0.026623 0.005304
v 0.013859 -0.026623 0.000000
v 0.012804 -0.026623 -0.005304
v 0.009800 -0.026623 -0.009800
v 0.005304 -0.026623 -0.012804
v 0.002937 0.012813 -0.026615
v -0.000000 -0.013934 -0.026615
v -0.005304 -0.012917 -0.026615
v -0.009800 -0.009973 -0.026615
v -0.012804 -0.005463 -0.026615
v -0.013859 -0.000252 -0.026615
v -0.012804 0.005013 -0.026615
v -0.009800 0.009449 -0.026615
v -0.005304 0.012273 -0.026615
v -0.002937 -0.026623 0.013070
v -0.005304 -0.026623 0.012503
v -0.009800 -0.026623 0.009800
v -0.012804 -0.026623 0.005304
v -0.013859 -0.026623 0.000000
v -0.012804 -0.026623 -0.005304
v -0.009800 -0.026623 -0.009800
v -0.005304 -0.026623 -0.012804
v 0.000000 -0.026623 -0.013835
v -0.002937 0.012813 -0.026615
vn 0.0073 -0.7288 -0.6847
vn 0.4328 -0.3433 -0.8335
vn -0.0000 -0.3767 -0.9263
vn 0.3646 -0.8582 -0.3612
vn 0.3975 -0.9132 -0.0897
vn 0.3698 -0.8798 -0.2987
vn 0.7493 -0.6151 -0.2453
vn 0.4311 -0.6761 -0.5975
vn 0.4267 -0.8364 -0.3440
vn 0.6952 -0.6567 -0.2923
vn 0.7068 -0.7020 -0.0873
vn 0.9412 -0.3139 -0.1252
vn 0.7776 -0.4680 -0.4199
vn 0.9244 -0.3119 -0.2195
vn 0.9276 -0.3708 -0.0461
vn 0.9999 0.0128 0.0050
vn 0.9506 -0.2294 -0.2092
vn 0.9802 0.1085 -0.1657
vn 0.9999 0.0139 0.0024
vn 0.9318 0.3365 0.1361
vn 0.9998 0.0179 0.0090
vn 0.8465 0.5168 -0.1281
vn 0.9171 0.3952 0.0515
vn 0.7354 0.6249 0.2620
vn 0.9379 0.2629 0.2265
vn 0.4705 0.8302 0.2992
vn 0.7544 0.4927 0.4337
vn -0.9244 -0.2238 0.3088
vn 0.7886 -0.3616 0.4973
vn 0.4530 -0.1259 0.8826
vn 0.8521 0.0298 0.5225
vn 0.4626 0.0585 0.8846
vn 0.8395 0.2809 0.4651
vn 0.3513 0.6986 0.6233
vn 0.8682 0.3607 0.3408
vn -0.4267 -0.8364 -0.3440
vn -0.0000 -0.9266 -0.3760
vn 0.7436 0.0398 0.6674
vn 0.4573 -0.0732 0.8863
vn 0.6791 -0.0744 0.7303
vn 0.4895 0.3025 0.8179
vn 0.9264 0.0218 0.3758
vn 0.9127 -0.1061 0.3947
vn 0.7483 0.2499 0.6145
vn 0.9999 -0.0142 0.0097
vn 0.9891 -0.1461 0.0198
vn 0.9356 0.1192 0.3323
vn 0.7400 0.6694 0.0654
vn 0.4388 0.8973 0.0488
vn 0.9320 -0.0486 -0.3591
vn 0.9136 -0.1998 -0.3542
vn 0.9998 -0.0044 0.0193
vn 0.7282 -0.0743 -0.6813
vn 0.6975 -0.2603 -0.6676
vn 0.9469 -0.1236 -0.2968
vn 0.4093 0.1634 0.8977
vn 0.4038 -0.0853 -0.9108
vn 0.3735 -0.3107 -0.8740
vn 0.7675 -0.2354 -0.5963
vn -0.4840 0.4677 0.7396
vn 0.4589 0.3688 0.8083
vn -0.0000 -0.0666 -0.9978
vn 0.6488 0.7476 -0.1419
vn 0.8436 0.5358 0.0348
vn 0.8268 0.4723 0.3056
vn -0.0214 -0.4247 -0.9051
vn 0.0001 -0.3385 -0.9410
vn 0.4607 0.8751 0.1482
vn -0.2853 0.8401 -0.4613
vn 0.4434 0.8884 -0.1189
vn 0.7884 0.5055 -0.3505
vn -0.4855 0.8447 0.2252
vn 0.4566 0.6444 0.6135
vn 0.8519 0.4701 0.2307
vn -0.5928 0.4021 0.6978
vn -0.0000 -0.0000 -1.0000
vn -0.6578 -0.1884 0.7292
vn -0.0000 -1.0000 -0.0000
vn -0.0000 -0.9954 -0.0954
vn -0.0000 -0.9456 -0.3254
vn -0.9235 0.2121 -0.3195
vn -0.5511 0.7612 0.3419
vn -0.8580 -0.3630 -0.3634
vn -0.3976 -0.9132 -0.0897
vn -0.7302 -0.6800 -0.0665
vn -0.4523 -0.6604 -0.5995
vn -0.7584 -0.6027 -0.2481
vn -0.9347 0.0607 -0.3503
vn -0.9347 -0.3536 -0.0351
vn -0.7784 -0.4656 -0.4212
vn -0.9444 -0.3041 -0.1251
vn -0.7995 0.4826 -0.3577
vn -0.9998 0.0195 0.0019
vn -0.9506 -0.2285 -0.2100
vn -0.9998 0.0164 0.0069
vn -0.4989 0.7834 -0.3708
vn -0.9209 0.3880 0.0378
vn -0.9998 0.0162 0.0089
vn -0.9323 0.3345 0.1378
vn -0.1088 0.9168 -0.3842
vn -0.7183 0.6931 0.0607
vn -0.9391 0.2571 0.2281
vn -0.7397 0.6205 0.2604
vn -0.7578 0.4833 0.4385
vn -0.4986 0.7963 0.3425
vn -0.8496 0.0202 0.5271
vn -0.8639 0.1940 0.4647
vn -0.3506 0.6867 0.6368
vn -0.5080 0.3503 0.7869
vn -0.6573 -0.1349 0.7415
vn -0.7227 0.0373 0.6901
vn -0.6890 -0.0744 0.7209
vn -0.7476 0.2602 0.6110
vn -0.9194 0.0282 0.3922
vn -0.9129 -0.1035 0.3948
vn -0.9346 0.1356 0.3289
vn -0.9998 0.0014 0.0196
vn -0.9890 -0.1464 0.0198
vn -0.9999 0.0067 0.0160
vn -0.4810 0.8732 0.0786
vn -0.9337 -0.0256 -0.3572
vn -0.9131 -0.2020 -0.3541
vn -0.9462 -0.1231 -0.2991
vn -0.3635 0.1187 0.9240
vn -0.7261 -0.0493 -0.6858
vn -0.6975 -0.2603 -0.6676
vn -0.7643 -0.2457 -0.5962
vn -0.3698 -0.0715 -0.9264
vn -0.4328 -0.3433 -0.8336
vn 0.2136 0.9146 -0.3433
vn -0.8490 0.5264 0.0459
vn -0.8209 0.4784 0.3119
vn -0.8201 0.3714 0.4352
vn -0.0290 -0.9530 -0.3016
vn -0.0104 -0.9090 -0.4167
vt 0.378085 0.654082
vt 0.384686 0.641135
vt 0.384315 0.654082
vt 0.350915 0.636088
vt 0.365998 0.642277
vt 0.353432 0.644760
vt 0.371831 0.628671
vt 0.378092 0.640893
vt 0.372385 0.641312
vt 0.347117 0.627906
vt 0.364799 0.630685
vt 0.371091 0.616608
vt 0.378131 0.627769
vt 0.342688 0.620208
vt 0.363183 0.619579
vt 0.370313 0.605425
vt 0.378172 0.615291
vt 0.337943 0.612571
vt 0.361449 0.609144
vt 0.369529 0.595255
vt 0.378205 0.603797
vt 0.333208 0.604953
vt 0.359665 0.599459
vt 0.368671 0.585993
vt 0.378222 0.593446
vt 0.367569 0.577256
vt 0.378222 0.584133
vt 0.686682 0.607818
vt 0.696670 0.602505
vt 0.693093 0.608610
vt 0.701505 0.634593
vt 0.695416 0.635116
vt 0.391043 0.573062
vt 0.378184 0.575482
vt 0.378134 0.571660
vt 0.372385 0.666853
vt 0.372637 0.654082
vt 0.398744 0.590358
vt 0.428053 0.597088
vt 0.423574 0.604592
vt 0.390299 0.576909
vt 0.396772 0.599439
vt 0.418786 0.612258
vt 0.389177 0.585503
vt 0.394978 0.609175
vt 0.413985 0.619934
vt 0.388257 0.594672
vt 0.357711 0.590448
vt 0.355175 0.581699
vt 0.393249 0.619634
vt 0.409453 0.627763
vt 0.387349 0.604853
vt 0.402885 0.577611
vt 0.391652 0.630734
vt 0.405630 0.635957
vt 0.386383 0.616132
vt 0.401422 0.581362
vt 0.390480 0.642298
vt 0.403073 0.644721
vt 0.385425 0.628334
vt 0.684220 0.650542
vt 0.695155 0.650944
vt 0.390032 0.654082
vt 0.328648 0.597345
vt 0.353752 0.577964
vt 0.366818 0.573386
vt 0.403073 0.663444
vt 0.402300 0.654082
vt 0.695101 0.701421
vt 0.702140 0.684227
vt 0.701192 0.702217
vt 0.682553 0.734294
vt 0.692732 0.728973
vt 0.696215 0.733580
vt 0.683725 0.683686
vt 0.695193 0.668428
vt 0.695446 0.683951
vt 0.684079 0.668022
vt 0.326595 0.593849
vt 0.702140 0.668423
vt 0.701540 0.650831
vt 0.287030 0.949088
vt 0.271662 0.985402
vt 0.255761 0.962105
vt 0.684193 0.634842
vt 0.201518 0.977342
vt 0.235410 0.954806
vt 0.229859 0.982979
vt 0.366480 0.654083
vt 0.354202 0.654083
vt 0.686142 0.728174
vt 0.430112 0.593591
vt 0.683856 0.701115
vt 0.350915 0.672077
vt 0.365998 0.665888
vt 0.364800 0.677480
vt 0.378092 0.667272
vt 0.371832 0.679493
vt 0.347118 0.680260
vt 0.363185 0.688586
vt 0.378132 0.680395
vt 0.371092 0.691557
vt 0.342689 0.687957
vt 0.361450 0.699021
vt 0.378173 0.692874
vt 0.370315 0.702740
vt 0.337945 0.695595
vt 0.359667 0.708705
vt 0.378206 0.704367
vt 0.369531 0.712909
vt 0.333210 0.703212
vt 0.357713 0.717717
vt 0.378224 0.714718
vt 0.368673 0.722171
vt 0.378224 0.724030
vt 0.367572 0.730908
vt 0.678079 0.634194
vt 0.391044 0.735100
vt 0.378186 0.732681
vt 0.390300 0.731254
vt 0.428053 0.711075
vt 0.398745 0.717805
vt 0.423574 0.703571
vt 0.389179 0.722660
vt 0.396773 0.708725
vt 0.418786 0.695905
vt 0.388258 0.713491
vt 0.394979 0.698988
vt 0.413985 0.688229
vt 0.387350 0.703311
vt 0.355178 0.726465
vt 0.393249 0.688530
vt 0.409454 0.680401
vt 0.386384 0.692032
vt 0.402886 0.730551
vt 0.401423 0.726800
vt 0.391652 0.677430
vt 0.405630 0.672207
vt 0.385425 0.679830
vt 0.390480 0.665866
vt 0.384686 0.667030
vt 0.328651 0.710821
vt 0.353755 0.730200
vt 0.366820 0.734777
vt 0.677018 0.683899
vt 0.326598 0.714316
vt 0.677108 0.667985
vt 0.677808 0.701817
vt 0.677844 0.650374
vt 0.430112 0.714572
vt 0.353432 0.663405
vt 0.258784 0.954749
vt 0.262282 0.946024
vt 0.264392 0.949228
vt 0.251999 0.961358
vt 0.255594 0.952606
vt 0.255746 0.969891
vt 0.258774 0.977142
vt 0.251980 0.970642
vt 0.264334 0.982618
vt 0.255592 0.979292
vt 0.270923 0.989148
vt 0.262257 0.985856
vt 0.222579 0.985596
vt 0.219059 0.989500
vt 0.219358 0.985721
vt 0.223305 0.989335
vt 0.238601 0.979561
vt 0.231925 0.986237
vt 0.238450 0.970089
vt 0.235410 0.977428
vt 0.238450 0.962145
vt 0.242215 0.970838
vt 0.242215 0.961397
vt 0.229799 0.949195
vt 0.238601 0.952674
vt 0.275160 0.989261
vt 0.279728 0.946155
vt 0.271012 0.942463
vt 0.280441 0.942385
vt 0.289148 0.945882
vt 0.295838 0.952573
vt 0.292654 0.954712
vt 0.295668 0.961891
vt 0.299432 0.961133
vt 0.295668 0.969749
vt 0.299432 0.970508
vt 0.292646 0.976945
vt 0.295810 0.979132
vt 0.289082 0.985510
vt 0.286957 0.982338
vt 0.207243 0.982546
vt 0.209001 0.987499
vt 0.205141 0.985722
vt 0.198363 0.979561
vt 0.194750 0.970838
vt 0.198514 0.970089
vt 0.194750 0.961397
vt 0.198514 0.962145
vt 0.198363 0.952674
vt 0.201554 0.954806
vt 0.207171 0.949189
vt 0.205039 0.945998
vt 0.214502 0.946152
vt 0.213761 0.942385
vt 0.223195 0.942425
vt 0.231925 0.945998
vt 0.285216 0.987246
vt 0.284061 0.983638
vt 0.274836 0.985487
vt 0.210171 0.983894
vt 0.271765 0.946221
vt 0.222447 0.946186
vt 0.683219 0.603206
vt 0.378136 0.736503
s 1
f 127/1/1 29/2/2 132/3/3
f 135/4/4 8/5/5 134/6/6
f 27/7/7 1/8/8 28/9/9
f 136/10/10 9/11/11 135/4/4
f 26/12/12 2/13/13 27/7/7
f 137/14/14 10/15/15 136/10/10
f 25/16/16 3/17/17 26/12/12
f 138/18/18 11/19/19 137/14/14
f 24/20/20 4/21/21 25/16/16
f 139/22/22 12/23/23 138/18/18
f 23/24/24 5/25/25 24/20/20
f 15/26/26 7/27/27 23/24/24
f 109/28/28 141/29/29 46/30/30
f 46/30/30 40/31/31 44/32/32
f 38/33/33 6/34/34 37/35/35
f 127/1/1 91/36/36 129/37/37
f 14/38/38 142/39/39 143/40/40
f 35/41/41 7/27/27 6/34/34
f 9/11/11 28/9/9 8/5/5
f 10/15/15 27/7/7 9/11/11
f 18/42/42 143/40/40 144/43/43
f 34/44/44 5/25/25 7/27/27
f 11/19/19 26/12/12 10/15/15
f 12/23/23 25/16/16 11/19/19
f 19/45/45 144/43/43 145/46/46
f 33/47/47 4/21/21 5/25/25
f 16/48/48 24/20/20 12/23/23
f 17/49/49 23/24/24 16/48/48
f 20/50/50 145/46/46 146/51/51
f 32/52/52 3/17/17 4/21/21
f 40/53/31 35/41/41 38/33/33
f 21/54/53 146/51/51 147/55/54
f 31/56/55 2/13/13 3/17/17
f 13/57/56 34/44/44 35/41/41
f 14/38/38 33/47/47 34/44/44
f 22/58/57 147/55/54 148/59/58
f 30/60/59 1/8/8 2/13/13
f 18/42/42 32/52/52 33/47/47
f 19/45/45 31/56/55 32/52/52
f 106/61/60 44/32/32 43/62/61
f 132/3/3 22/58/57 133/63/62
f 20/50/50 30/60/59 31/56/55
f 21/54/53 29/2/2 30/60/59
f 140/64/63 16/48/48 139/22/22
f 39/65/64 15/26/26 17/49/49
f 36/66/65 6/34/34 15/26/26
f 165/67/66 133/63/62 166/68/67
f 47/69/68 36/70/65 39/71/64
f 167/72/69 41/73/70 149/74/71
f 108/75/72 42/76/73 45/77/74
f 105/78/75 43/62/61 42/76/73
f 149/79/71 17/49/49 140/64/63
f 37/80/35 43/62/61 38/81/33
f 112/82/76 54/83/76 50/84/76
f 107/85/77 46/30/30 44/32/32
f 39/71/64 41/73/70 47/69/68
f 121/86/78 62/87/78 58/88/78
f 134/6/6 131/89/79 150/90/80
f 45/77/74 37/80/35 36/70/65
f 38/81/33 44/32/32 40/31/31
f 104/91/81 47/69/68 41/73/70
f 13/57/56 141/92/29 142/39/39
f 110/93/82 45/77/74 47/69/68
f 152/94/83 71/95/84 72/96/85
f 64/97/86 90/98/87 91/36/36
f 153/99/88 72/96/85 73/100/89
f 65/101/90 89/102/91 90/98/87
f 154/103/92 73/100/89 74/104/93
f 66/105/94 88/106/95 89/102/91
f 155/107/96 74/104/93 75/108/97
f 67/109/98 87/110/99 88/106/95
f 156/111/100 75/108/97 79/112/101
f 68/113/102 86/114/103 87/110/99
f 70/115/104 78/116/105 86/114/103
f 103/117/106 109/28/28 107/85/77
f 101/118/107 69/119/108 98/120/109
f 159/121/110 77/122/111 160/123/112
f 98/120/109 70/115/104 97/124/113
f 91/36/36 72/96/85 71/95/84
f 90/98/87 73/100/89 72/96/85
f 160/123/112 81/125/114 161/126/115
f 97/124/113 68/113/102 96/127/116
f 89/102/91 74/104/93 73/100/89
f 88/106/95 75/108/97 74/104/93
f 161/126/115 82/128/117 162/129/118
f 96/127/116 67/109/98 95/130/119
f 87/110/99 79/112/101 75/108/97
f 86/114/103 80/131/120 79/112/101
f 162/129/118 83/132/121 163/133/122
f 95/130/119 66/105/94 94/134/123
f 103/135/106 98/120/109 76/136/124
f 163/133/122 84/137/125 164/138/126
f 94/134/123 65/101/90 93/139/127
f 76/136/124 97/124/113 77/122/111
f 77/122/111 96/127/116 81/125/114
f 164/138/126 85/140/128 165/67/66
f 93/139/127 64/97/86 92/141/129
f 81/125/114 95/130/119 82/128/117
f 82/128/117 94/134/123 83/132/121
f 83/132/121 93/139/127 84/137/125
f 84/137/125 92/141/129 85/140/128
f 157/142/130 79/112/101 80/131/120
f 78/116/105 102/143/131 80/131/120
f 69/119/108 99/144/132 78/116/105
f 110/93/82 99/145/132 108/75/72
f 167/146/69 80/131/120 102/143/131
f 100/147/133 106/61/60 105/78/75
f 102/148/131 104/91/81 167/72/69
f 100/147/133 108/75/72 99/145/132
f 101/149/107 107/85/77 106/61/60
f 158/150/134 76/136/124 159/121/110
f 129/37/37 71/95/84 131/89/79
f 129/37/37 8/5/5 28/9/9
f 151/151/135 131/89/79 71/95/84
f 148/59/58 133/63/62 22/58/57
f 85/140/128 132/3/3 133/63/62
f 127/1/1 28/9/9 1/8/8
f 92/141/129 127/1/1 132/3/3
f 49/152/76 134/153/6 48/154/76
f 49/152/76 136/155/10 135/156/4
f 51/157/76 136/155/10 50/84/76
f 52/158/76 137/159/14 51/157/76
f 53/160/76 138/161/18 52/158/76
f 53/160/76 140/162/63 139/163/22
f 57/164/78 141/165/29 56/166/78
f 58/88/78 142/167/39 57/164/78
f 58/88/78 144/168/43 143/169/40
f 60/170/78 144/168/43 59/171/78
f 61/172/78 145/173/46 60/170/78
f 62/87/78 146/174/51 61/172/78
f 63/175/78 147/176/54 62/87/78
f 54/83/76 149/177/71 140/162/63
f 111/178/76 150/179/80 151/180/135
f 112/82/76 151/180/135 152/181/83
f 112/82/76 153/182/88 113/183/76
f 114/184/76 153/182/88 154/185/92
f 115/186/76 154/185/92 155/187/96
f 116/188/76 155/187/96 156/189/100
f 116/188/76 157/190/130 117/191/76
f 120/192/78 158/193/134 159/194/110
f 121/86/78 159/194/110 160/195/112
f 121/86/78 161/196/115 122/197/78
f 122/197/78 162/198/118 123/199/78
f 123/199/78 163/200/122 124/201/78
f 125/202/78 163/200/122 164/203/126
f 126/204/78 164/203/126 165/205/66
f 63/175/78 166/206/67 148/207/58
f 117/191/76 167/208/69 118/209/76
f 118/209/76 149/177/71 55/210/76
f 56/166/78 158/193/134 119/211/78
f 48/154/76 150/179/80 128/212/76
f 126/204/78 166/206/67 130/213/78
f 127/1/1 1/8/8 29/2/2
f 135/4/4 9/11/11 8/5/5
f 27/7/7 2/13/13 1/8/8
f 136/10/10 10/15/15 9/11/11
f 26/12/12 3/17/17 2/13/13
f 137/14/14 11/19/19 10/15/15
f 25/16/16 4/21/21 3/17/17
f 138/18/18 12/23/23 11/19/19
f 24/20/20 5/25/25 4/21/21
f 139/22/22 16/48/48 12/23/23
f 23/24/24 7/27/27 5/25/25
f 15/26/26 6/34/34 7/27/27
f 109/28/28 158/214/134 141/29/29
f 46/30/30 141/29/29 40/31/31
f 38/33/33 35/41/41 6/34/34
f 127/1/1 64/97/86 91/36/36
f 14/38/38 13/57/56 142/39/39
f 35/41/41 34/44/44 7/27/27
f 9/11/11 27/7/7 28/9/9
f 10/15/15 26/12/12 27/7/7
f 18/42/42 14/38/38 143/40/40
f 34/44/44 33/47/47 5/25/25
f 11/19/19 25/16/16 26/12/12
f 12/23/23 24/20/20 25/16/16
f 19/45/45 18/42/42 144/43/43
f 33/47/47 32/52/52 4/21/21
f 16/48/48 23/24/24 24/20/20
f 17/49/49 15/26/26 23/24/24
f 20/50/50 19/45/45 145/46/46
f 32/52/52 31/56/55 3/17/17
f 40/53/31 13/57/56 35/41/41
f 21/54/53 20/50/50 146/51/51
f 31/56/55 30/60/59 2/13/13
f 13/57/56 14/38/38 34/44/44
f 14/38/38 18/42/42 33/47/47
f 22/58/57 21/54/53 147/55/54
f 30/60/59 29/2/2 1/8/8
f 18/42/42 19/45/45 32/52/52
f 19/45/45 20/50/50 31/56/55
f 106/61/60 107/85/77 44/32/32
f 132/3/3 29/2/2 22/58/57
f 20/50/50 21/54/53 30/60/59
f 21/54/53 22/58/57 29/2/2
f 140/64/63 17/49/49 16/48/48
f 39/65/64 36/66/65 15/26/26
f 36/66/65 37/35/35 6/34/34
f 165/67/66 85/140/128 133/63/62
f 47/69/68 45/77/74 36/70/65
f 167/72/69 104/91/81 41/73/70
f 108/75/72 105/78/75 42/76/73
f 105/78/75 106/61/60 43/62/61
f 149/79/71 39/65/64 17/49/49
f 37/80/35 42/76/73 43/62/61
f 128/212/76 111/178/76 112/82/76
f 112/82/76 113/183/76 114/184/76
f 114/184/76 115/186/76 116/188/76
f 116/188/76 117/191/76 118/209/76
f 118/209/76 55/210/76 54/83/76
f 54/83/76 53/160/76 52/158/76
f 52/158/76 51/157/76 50/84/76
f 50/84/76 49/152/76 48/154/76
f 48/154/76 128/212/76 112/82/76
f 112/82/76 114/184/76 116/188/76
f 116/188/76 118/209/76 54/83/76
f 54/83/76 52/158/76 50/84/76
f 50/84/76 48/154/76 112/82/76
f 112/82/76 116/188/76 54/83/76
f 107/85/77 109/28/28 46/30/30
f 39/71/64 149/74/71 41/73/70
f 119/211/78 120/192/78 121/86/78
f 121/86/78 122/197/78 123/199/78
f 123/199/78 124/201/78 125/202/78
f 125/202/78 126/204/78 130/213/78
f 130/213/78 63/175/78 62/87/78
f 62/87/78 61/172/78 60/170/78
f 60/170/78 59/171/78 58/88/78
f 58/88/78 57/164/78 56/166/78
f 56/166/78 119/211/78 121/86/78
f 121/86/78 123/199/78 125/202/78
f 125/202/78 130/213/78 62/87/78
f 62/87/78 60/170/78 58/88/78
f 58/88/78 56/166/78 121/86/78
f 121/86/78 125/202/78 62/87/78
f 134/6/6 8/5/5 131/89/79
f 45/77/74 42/76/73 37/80/35
f 38/81/33 43/62/61 44/32/32
f 104/91/81 110/93/82 47/69/68
f 13/57/56 40/53/31 141/92/29
f 110/93/82 108/75/72 45/77/74
f 152/94/83 151/151/135 71/95/84
f 64/97/86 65/101/90 90/98/87
f 153/99/88 152/94/83 72/96/85
f 65/101/90 66/105/94 89/102/91
f 154/103/92 153/99/88 73/100/89
f 66/105/94 67/109/98 88/106/95
f 155/107/96 154/103/92 74/104/93
f 67/109/98 68/113/102 87/110/99
f 156/111/100 155/107/96 75/108/97
f 68/113/102 70/115/104 86/114/103
f 70/115/104 69/119/108 78/116/105
f 103/117/106 158/214/134 109/28/28
f 101/118/107 100/215/133 69/119/108
f 159/121/110 76/136/124 77/122/111
f 98/120/109 69/119/108 70/115/104
f 91/36/36 90/98/87 72/96/85
f 90/98/87 89/102/91 73/100/89
f 160/123/112 77/122/111 81/125/114
f 97/124/113 70/115/104 68/113/102
f 89/102/91 88/106/95 74/104/93
f 88/106/95 87/110/99 75/108/97
f 161/126/115 81/125/114 82/128/117
f 96/127/116 68/113/102 67/109/98
f 87/110/99 86/114/103 79/112/101
f 86/114/103 78/116/105 80/131/120
f 162/129/118 82/128/117 83/132/121
f 95/130/119 67/109/98 66/105/94
f 103/135/106 101/118/107 98/120/109
f 163/133/122 83/132/121 84/137/125
f 94/134/123 66/105/94 65/101/90
f 76/136/124 98/120/109 97/124/113
f 77/122/111 97/124/113 96/127/116
f 164/138/126 84/137/125 85/140/128
f 93/139/127 65/101/90 64/97/86
f 81/125/114 96/127/116 95/130/119
f 82/128/117 95/130/119 94/134/123
f 83/132/121 94/134/123 93/139/127
f 84/137/125 93/139/127 92/141/129
f 157/142/130 156/111/100 79/112/101
f 78/116/105 99/144/132 102/143/131
f 69/119/108 100/215/133 99/144/132
f 110/93/82 102/148/131 99/145/132
f 167/146/69 157/142/130 80/131/120
f 100/147/133 101/149/107 106/61/60
f 102/148/131 110/93/82 104/91/81
f 100/147/133 105/78/75 108/75/72
f 101/149/107 103/117/106 107/85/77
f 158/150/134 103/135/106 76/136/124
f 129/37/37 91/36/36 71/95/84
f 129/37/37 131/89/79 8/5/5
f 151/151/135 150/90/80 131/89/79
f 148/59/58 166/68/67 133/63/62
f 85/140/128 92/141/129 132/3/3
f 127/1/1 129/37/37 28/9/9
f 92/141/129 64/97/86 127/1/1
f 49/152/76 135/156/4 134/153/6
f 49/152/76 50/84/76 136/155/10
f 51/157/76 137/159/14 136/155/10
f 52/158/76 138/161/18 137/159/14
f 53/160/76 139/163/22 138/161/18
f 53/160/76 54/83/76 140/162/63
f 57/164/78 142/167/39 141/165/29
f 58/88/78 143/169/40 142/167/39
f 58/88/78 59/171/78 144/168/43
f 60/170/78 145/173/46 144/168/43
f 61/172/78 146/174/51 145/173/46
f 62/87/78 147/176/54 146/174/51
f 63/175/78 148/207/58 147/176/54
f 54/83/76 55/210/76 149/177/71
f 111/178/76 128/212/76 150/179/80
f 112/82/76 111/178/76 151/180/135
f 112/82/76 152/181/83 153/182/88
f 114/184/76 113/183/76 153/182/88
f 115/186/76 114/184/76 154/185/92
f 116/188/76 115/186/76 155/187/96
f 116/188/76 156/189/100 157/190/130
f 120/192/78 119/211/78 158/193/134
f 121/86/78 120/192/78 159/194/110
f 121/86/78 160/195/112 161/196/115
f 122/197/78 161/196/115 162/198/118
f 123/199/78 162/198/118 163/200/122
f 125/202/78 124/201/78 163/200/122
f 126/204/78 125/202/78 164/203/126
f 63/175/78 130/213/78 166/206/67
f 117/191/76 157/190/130 167/208/69
f 118/209/76 167/208/69 149/177/71
f 56/166/78 141/165/29 158/193/134
f 48/154/76 134/153/6 150/179/80
f 126/204/78 165/205/66 166/206/67
